<svg width="106" height="106" viewBox="0 0 106 106" fill="none" xmlns="http://www.w3.org/2000/svg">
<rect x="2" y="2" width="102" height="102" rx="28" fill="black" stroke="white" stroke-width="4"/>
<path d="M61.7398 24.36C56.8156 22.9494 51.6723 25.8094 50.2672 30.7529L49.5324 33.3412C49.0555 35.0235 48.1918 36.5765 47.0188 37.8706L40.4059 45.1694C39.2586 46.4376 39.3488 48.4047 40.6121 49.5565C41.8754 50.7082 43.8348 50.6176 44.982 49.3494L51.5949 42.0506C53.4125 40.0447 54.7402 37.6506 55.475 35.0494L56.2098 32.4612C56.6738 30.8176 58.3883 29.86 60.0383 30.3259C61.6883 30.7917 62.6293 32.5129 62.1652 34.1694L61.4305 36.7576C60.6957 39.3329 59.5355 41.7659 58.0016 43.94C57.3312 44.8847 57.2539 46.127 57.7824 47.1623C58.3109 48.1976 59.368 48.8447 60.5281 48.8447H77.75C78.8844 48.8447 79.8125 49.7765 79.8125 50.9153C79.8125 51.7953 79.2582 52.5588 78.4719 52.8565C77.518 53.2188 76.7961 54.0212 76.5512 55.0176C76.3063 56.0141 76.5641 57.0623 77.2344 57.8259C77.5566 58.1882 77.75 58.667 77.75 59.1976C77.75 60.2071 77.0281 61.0482 76.0742 61.2294C75.0172 61.4365 74.1277 62.1741 73.7539 63.1965C73.3801 64.2188 73.5477 65.3576 74.218 66.2118C74.4887 66.5612 74.6562 67.0012 74.6562 67.4929C74.6562 68.36 74.1148 69.1235 73.3414 69.4212C71.859 70.0035 71.0598 71.6082 71.4852 73.1482C71.5367 73.3165 71.5625 73.5106 71.5625 73.7047C71.5625 74.8435 70.6344 75.7753 69.5 75.7753H56.9316C55.3074 75.7753 53.709 75.2965 52.3555 74.3906L44.402 69.0718C42.984 68.1141 41.0633 68.5023 40.1094 69.9388C39.1555 71.3753 39.5422 73.2906 40.973 74.2482L48.9266 79.5671C51.2984 81.1588 54.0828 82 56.9316 82H69.5C73.973 82 77.6082 78.4282 77.75 73.9765C79.632 72.4623 80.8438 70.1329 80.8438 67.5059C80.8438 66.9235 80.7793 66.3671 80.6762 65.8235C82.6613 64.3094 83.9375 61.9153 83.9375 59.2235C83.9375 58.3823 83.8086 57.5671 83.5766 56.8035C85.0719 55.2765 86 53.2059 86 50.9153C86 46.347 82.3133 42.6329 77.75 42.6329H65.852C66.4578 41.287 66.9734 39.8894 67.373 38.4659L68.1078 35.8776C69.5129 30.9341 66.6641 25.7706 61.7398 24.36ZM24.125 44.7035C21.8434 44.7035 20 46.5541 20 48.8447V77.8329C20 80.1235 21.8434 81.9741 24.125 81.9741H32.375C34.6566 81.9741 36.5 80.1235 36.5 77.8329V48.8447C36.5 46.5541 34.6566 44.7035 32.375 44.7035H24.125Z" fill="white"/>
<path d="M26.068 34.9638L35.8702 40.183C36.277 40.3995 36.7519 40.4537 37.1989 40.3339C37.6458 40.2141 38.03 39.9298 38.2741 39.5389L44.1534 30.1179C45.1435 28.5364 45.4283 26.6138 44.9457 24.8131L44.8783 24.5614C44.0656 21.5284 41.1814 19.5294 38.058 19.8315C35.991 20.0319 34.1509 21.2179 33.1154 23.0115L32.7342 23.6717L32.074 23.2905C30.2804 22.255 28.0938 22.1479 26.2036 23.0079C23.3476 24.308 21.8493 27.4812 22.662 30.5143L22.7295 30.7659C23.212 32.5667 24.4199 34.0893 26.068 34.9638Z" fill="white"/>
<path d="M28.4433 33.7643L35.4984 37.4583C35.7912 37.6116 36.1335 37.6489 36.4561 37.5625C36.7786 37.4761 37.0564 37.2725 37.2334 36.9934L41.4963 30.2668C42.2141 29.1377 42.4242 27.7672 42.0808 26.4855L42.0328 26.3063C41.4543 24.1475 39.3796 22.7305 37.1267 22.9535C35.6357 23.1014 34.3059 23.9509 33.5547 25.2314L33.2782 25.7027L32.8031 25.4328C31.5124 24.6995 29.936 24.6286 28.5708 25.246C26.5082 26.1794 25.42 28.4439 25.9984 30.6027L26.0464 30.7819C26.3899 32.0636 27.2571 33.1454 28.4433 33.7643Z" fill="black"/>
<path d="M84.4273 15.8328C85.3233 16.2404 85.7211 17.2998 85.3136 18.1955L83.9364 21.2221L89.0625 22.5957L90.6829 19.0278C91.0904 18.1322 92.1502 17.7347 93.0462 18.1422C93.9422 18.5498 94.3401 19.6093 93.9325 20.5049L92.5608 23.533L95.6979 24.3736C96.6519 24.6292 97.2163 25.6063 96.9607 26.56C96.7052 27.5137 95.728 28.0776 94.7739 27.822L91.06 26.8268L88.0639 33.416L91.201 34.2566C92.1551 34.5122 92.7194 35.4892 92.4639 36.4429C92.2084 37.3966 91.2311 37.9606 90.277 37.7049L86.5632 36.7098L84.9428 40.2777C84.5353 41.1733 83.4755 41.5708 82.5795 41.1632C81.6835 40.7557 81.2857 39.6962 81.6932 38.8005L83.0689 35.7793L77.9428 34.4058L76.3224 37.9736C75.9149 38.8692 74.8551 39.2667 73.9591 38.8592C73.0631 38.4516 72.6653 37.3921 73.0728 36.4965L74.4406 33.4616L71.3035 32.621C70.3494 32.3653 69.7851 31.3883 70.0406 30.4346C70.2962 29.4809 71.2734 28.917 72.2275 29.1726L75.9414 30.1677L78.9374 23.5786L75.8003 22.738C74.8463 22.4824 74.2819 21.5054 74.5375 20.5517C74.793 19.598 75.7703 19.034 76.7243 19.2897L80.4382 20.2848L82.0586 16.7169C82.4661 15.8213 83.5258 15.4238 84.4219 15.8314L84.4273 15.8328ZM82.4357 24.516L79.4396 31.1051L84.5657 32.4786L87.5618 25.8895L82.4357 24.516Z" fill="white"/>
</svg>
